HIERARCHY
ROOT Hips
{
	OFFSET -0.001795 -0.223333 0.028219
	CHANNELS 6 Xposition Yposition Zposition Zrotation Yrotation Xrotation 
	JOINT LeftUpLeg
	{
		OFFSET 0.069520 -0.091406 -0.006815
		CHANNELS 3 Zrotation Yrotation Xrotation
		JOINT LeftLeg
		{
			OFFSET 0.034277 -0.375199 -0.004496
			CHANNELS 3 Zrotation Yrotation Xrotation
			JOINT LeftFoot
			{
				OFFSET -0.013596 -0.397961 -0.043693
				CHANNELS 3 Zrotation Yrotation Xrotation
				JOINT LeftToe
				{
					OFFSET 0.026358 -0.055791 0.119288
					CHANNELS 3 Zrotation Yrotation Xrotation
					End Site
					{
						OFFSET 0.000000 0.000000 0.000000
					}
				}
			}
		}
	}
	JOINT RightUpLeg
	{
		OFFSET -0.067670 -0.090522 -0.004320
		CHANNELS 3 Zrotation Yrotation Xrotation
		JOINT RightLeg
		{
			OFFSET -0.038290 -0.382569 -0.008850
			CHANNELS 3 Zrotation Yrotation Xrotation
			JOINT RightFoot
			{
				OFFSET 0.015774 -0.398415 -0.042312
				CHANNELS 3 Zrotation Yrotation Xrotation
				JOINT RightToe
				{
					OFFSET -0.025372 -0.048144 0.123348
					CHANNELS 3 Zrotation Yrotation Xrotation
					End Site
					{
						OFFSET 0.000000 0.000000 0.000000
					}
				}
			}
		}
	}
	JOINT Spine
	{
		OFFSET -0.002533 0.108963 -0.026696
		CHANNELS 3 Zrotation Yrotation Xrotation
		JOINT Spine1
		{
			OFFSET 0.005487 0.135180 0.001092
			CHANNELS 3 Zrotation Yrotation Xrotation
			JOINT Spine2
			{
				OFFSET 0.001457 0.052922 0.025425
				CHANNELS 3 Zrotation Yrotation Xrotation
				JOINT Neck
				{
					OFFSET -0.002778 0.213870 -0.042857
					CHANNELS 3 Zrotation Yrotation Xrotation
					JOINT Head
					{
						OFFSET 0.005152 0.064970 0.051349
						CHANNELS 3 Zrotation Yrotation Xrotation
						End Site
						{
							OFFSET 0.000000 0.000000 0.000000
						}
					}
				}
				JOINT LeftShoulder
				{
					OFFSET 0.078845 0.121749 -0.034090
					CHANNELS 3 Zrotation Yrotation Xrotation
					JOINT LeftArm
					{
						OFFSET 0.090977 0.030469 -0.008868
						CHANNELS 3 Zrotation Yrotation Xrotation
						JOINT LeftForeArm
						{
							OFFSET 0.259612 -0.012772 -0.027456
							CHANNELS 3 Zrotation Yrotation Xrotation
							JOINT LeftHand
							{
								OFFSET 0.249234 0.008986 -0.001171
								CHANNELS 3 Zrotation Yrotation Xrotation
								End Site
								{
									OFFSET 0.000000 0.000000 0.000000
								}
							}
						}
					}
				}
				JOINT RightShoulder
				{
					OFFSET -0.081759 0.118833 -0.038615
					CHANNELS 3 Zrotation Yrotation Xrotation
					JOINT RightArm
					{
						OFFSET -0.096012 0.032551 -0.009143
						CHANNELS 3 Zrotation Yrotation Xrotation
						JOINT RightForeArm
						{
							OFFSET -0.253742 -0.013329 -0.021401
							CHANNELS 3 Zrotation Yrotation Xrotation
							JOINT RightHand
							{
								OFFSET -0.255298 0.007772 -0.005559
								CHANNELS 3 Zrotation Yrotation Xrotation
								End Site
								{
									OFFSET 0.000000 0.000000 0.000000
								}
							}
						}
					}
				}
			}
		}
	}
}
MOTION
Frames: 10
Frame Time: 0.050000
-0.027669 0.904532 -0.115763 -3.659150 3.825624 -7.374797 -2.721469 2.033640 19.871235 5.993911 -2.772611 21.027158 6.561966 -7.097521 -34.469782 0.000000 0.000000 0.000000 11.214811 3.282651 -16.907929 -2.436701 1.928900 35.536825 -1.094586 -13.837599 56.055243 0.000000 0.000000 0.000000 3.740465 -0.106683 2.303645 5.018592 -2.655208 1.720608 -5.570138 -3.374941 6.048439 5.139122 -2.649190 -11.493595 0.000000 0.000000 0.000000 -20.405506 -9.170349 3.123216 -49.808620 -17.462910 1.045749 -1.296001 -33.079111 1.713822 0.000000 0.000000 0.000000 17.103452 3.177131 0.071174 58.276215 -3.152448 -7.438554 8.808590 21.015425 2.164631 0.000000 0.000000 0.000000 
-0.033010 0.909877 -0.117245 -3.514270 3.453323 -7.788946 -2.049704 1.379684 13.887830 4.631870 -3.887081 34.957534 5.462496 -5.997340 -29.948510 0.000000 0.000000 0.000000 11.508607 2.671832 -13.452658 -2.832949 1.925840 30.268538 -1.705325 -14.126302 54.130041 0.000000 0.000000 0.000000 3.365379 -0.123446 2.644623 4.451559 -2.497341 3.166251 -5.708395 -2.037388 4.482227 5.630257 -2.714027 -12.282607 0.000000 0.000000 0.000000 -20.408622 -8.793163 2.494387 -51.535573 -15.909784 0.693016 -1.477085 -29.562392 1.451220 0.000000 0.000000 0.000000 16.837926 3.643841 0.550184 59.202980 -2.480405 -7.086458 9.092079 22.551995 2.429791 0.000000 0.000000 0.000000 
-0.036818 0.917004 -0.121416 -3.394932 2.769502 -7.373054 -2.705125 0.633400 5.830389 3.114523 -4.275937 45.681799 3.018897 -0.637011 -14.354747 0.000000 0.000000 0.000000 12.155820 2.151780 -10.580365 -4.141102 2.122411 24.017401 -1.922978 -14.178243 52.281747 0.000000 0.000000 0.000000 3.194742 -0.133164 2.727982 3.561651 -1.975153 2.725409 -5.661158 0.344445 5.002528 6.001941 -2.632770 -13.332174 0.000000 0.000000 0.000000 -22.686839 -9.636079 2.299735 -49.424247 -13.302701 -0.305174 -1.384609 -26.817965 1.183506 0.000000 0.000000 0.000000 17.900088 4.162096 1.274888 58.418261 -0.409194 -6.073970 8.915310 24.137198 2.684519 0.000000 0.000000 0.000000 
-0.039780 0.921658 -0.126688 -3.020654 2.334943 -7.735414 -2.805060 -0.161702 -1.312041 1.870039 -4.336525 54.220571 1.695845 4.782748 3.122252 0.000000 0.000000 0.000000 11.945819 1.252028 -6.211912 -4.636820 1.771748 16.363748 -2.365857 -14.353937 49.632641 0.000000 0.000000 0.000000 2.461235 -0.220763 4.252233 1.742364 -0.984292 2.236128 -3.752894 0.971310 4.824645 4.808808 -1.765836 -13.974144 0.000000 0.000000 0.000000 -25.746859 -9.077211 1.817108 -46.522958 -10.572027 -1.286076 -4.306058 -25.125149 1.753198 0.000000 0.000000 0.000000 17.866686 5.220437 1.833711 56.402181 1.037501 -5.213789 10.984857 26.536374 3.451887 0.000000 0.000000 0.000000 
-0.042161 0.926392 -0.131660 -2.957680 1.312657 -7.995139 -2.417992 -0.948462 -8.253353 0.701567 -3.206377 53.833263 4.604679 12.216978 12.520530 0.000000 0.000000 0.000000 12.277868 0.497076 -2.513879 -5.439095 1.439680 9.610371 -1.839502 -13.923311 48.444109 0.000000 0.000000 0.000000 2.270815 -0.297883 5.598664 1.254599 -0.638517 0.458275 -3.675868 3.177498 5.022270 4.938435 -1.749819 -13.542280 0.000000 0.000000 0.000000 -26.700943 -7.867485 0.394830 -46.875787 -7.351477 -2.340978 -4.792861 -22.219530 1.579992 0.000000 0.000000 0.000000 18.803558 6.096717 2.741371 55.358127 3.046317 -4.330912 9.464195 27.932262 3.393596 0.000000 0.000000 0.000000 
-0.044062 0.927721 -0.135038 -2.271672 -0.288878 -7.779163 -2.524415 -1.663388 -14.354902 0.020338 -1.872393 47.279847 7.945647 17.478816 17.316377 0.000000 0.000000 0.000000 11.613129 -0.309230 1.309594 -5.646847 0.793618 1.902963 -1.146273 -13.353116 46.464029 0.000000 0.000000 0.000000 1.794693 -0.270318 5.407911 0.413565 -0.283705 2.440352 -3.377646 4.906074 2.727349 4.383229 -1.542374 -11.741374 0.000000 0.000000 0.000000 -26.555511 -8.028850 0.103107 -45.580999 -4.021938 -3.194088 -7.502297 -18.616311 1.729112 0.000000 0.000000 0.000000 19.961114 7.087645 3.474335 53.087149 3.944662 -3.652421 7.512114 31.285357 3.356033 0.000000 0.000000 0.000000 
-0.045543 0.926910 -0.136727 -1.742406 -1.336666 -7.736811 -2.461209 -2.095901 -18.342340 -0.647772 -1.023715 41.010207 7.736396 16.907737 14.620853 0.000000 0.000000 0.000000 11.291438 -0.992011 4.725475 -6.059414 0.227067 -4.653107 -0.537717 -12.826905 45.399605 0.000000 0.000000 0.000000 1.270013 -0.253880 5.402984 -0.085270 -0.013941 2.363034 -3.481026 6.368903 2.366148 5.812525 -2.365435 -11.989398 0.000000 0.000000 0.000000 -26.622484 -8.127217 -0.196246 -46.491933 -0.259801 -4.556812 -6.581702 -16.425802 1.380507 0.000000 0.000000 0.000000 20.509421 6.032386 3.136882 52.402834 6.235343 -2.663076 5.985736 31.663813 3.051944 0.000000 0.000000 0.000000 
-0.046810 0.923359 -0.136237 -1.386504 -0.842123 -8.480811 -3.735617 -2.426326 -19.073286 0.620462 -1.616295 38.089581 3.913851 7.999591 -0.594687 0.000000 0.000000 0.000000 11.270605 -1.831462 9.022201 -6.736850 -0.356843 -11.142853 -0.612297 -12.773055 44.843550 0.000000 0.000000 0.000000 0.683004 -0.288025 6.565106 -0.628795 0.296831 0.761926 -3.132009 6.805179 3.138627 7.267587 -3.752890 -9.772351 0.000000 0.000000 0.000000 -26.339595 -8.830933 0.111288 -46.275518 3.457341 -5.958589 -7.505565 -14.334658 1.323658 0.000000 0.000000 0.000000 21.897724 4.928529 2.734338 50.786256 7.631100 -2.226227 3.872296 34.077561 2.786687 0.000000 0.000000 0.000000 
-0.047744 0.917520 -0.134147 -1.731464 -1.934483 -9.273467 -3.639202 -2.228780 -17.742214 0.964764 -1.630811 38.667601 3.647280 4.262289 -10.019253 0.000000 0.000000 0.000000 12.237853 -2.734638 13.193314 -7.720092 -0.953760 -17.045237 0.024241 -12.219469 44.363024 0.000000 0.000000 0.000000 0.954969 -0.283758 6.362140 -1.049206 0.491349 2.797366 -3.375813 7.784943 1.953745 7.894688 -4.019239 -10.278380 0.000000 0.000000 0.000000 -26.301544 -8.328982 -0.435234 -46.415161 5.627649 -6.648637 -6.161624 -11.869972 0.956346 0.000000 0.000000 0.000000 22.676869 4.693783 2.736650 50.272681 9.458067 -1.412367 1.826759 34.348243 2.228238 0.000000 0.000000 0.000000 
-0.048660 0.912465 -0.131402 -1.246246 -3.515937 -9.414336 -4.354996 -2.300498 -17.578013 1.448001 -1.585649 39.247420 3.351125 5.608027 -4.796309 0.000000 0.000000 0.000000 11.331807 -3.196739 16.453166 -6.811579 -1.359730 -22.391548 0.999282 -11.437768 44.217579 0.000000 0.000000 0.000000 0.234345 -0.253320 6.267842 -2.175590 1.098568 2.521362 -2.001772 7.494490 2.816660 7.860920 -3.980296 -10.984106 0.000000 0.000000 0.000000 -27.414976 -7.572269 -0.441234 -45.190732 7.180844 -7.181170 -6.908692 -9.580518 0.852173 0.000000 0.000000 0.000000 23.993160 4.245402 2.108614 49.410077 11.100638 -0.798565 2.066659 35.493085 2.315010 0.000000 0.000000 0.000000 
